<?xml version="1.0" encoding="UTF-8" standalone="no"?>
<!DOCTYPE svg PUBLIC "-//W3C//DTD SVG 1.1//EN"
 "http://www.w3.org/Graphics/SVG/1.1/DTD/svg11.dtd">
<!-- Generated by graphviz version 2.40.1 (20161225.0304)
 -->
<!-- Title: linkcheck.checker classes Pages: 1 -->
<svg width="858pt" height="191pt"
 viewBox="0.00 0.00 858.00 191.00" xmlns="http://www.w3.org/2000/svg" xmlns:xlink="http://www.w3.org/1999/xlink">
<g id="graph0" class="graph" transform="scale(1 1) rotate(0) translate(4 187)">
<title>linkcheck.checker classes</title>
<polygon fill="#ffffff" stroke="transparent" points="-4,4 -4,-187 854,-187 854,4 -4,4"/>
<!-- 1 -->
<g id="node1" class="node">
<title>1</title>
<g id="a_node1"><a xlink:href="../code/linkcheck/linkcheck.checker.dnsurl.html" xlink:title="DnsUrl" target="_blank">
<polygon fill="none" stroke="#000000" points="596.5,-73.5 596.5,-109.5 652.5,-109.5 652.5,-73.5 596.5,-73.5"/>
<text text-anchor="middle" x="624.5" y="-87.8" font-family="Times,serif" font-size="14.00" fill="#000000">DnsUrl</text>
</a>
</g>
</g>
<!-- 13 -->
<g id="node13" class="node">
<title>13</title>
<g id="a_node13"><a xlink:href="../code/linkcheck/linkcheck.checker.urlbase.html" xlink:title="UrlBase" target="_blank">
<polygon fill="none" stroke="#000000" points="446,-146.5 446,-182.5 507,-182.5 507,-146.5 446,-146.5"/>
<text text-anchor="middle" x="476.5" y="-160.8" font-family="Times,serif" font-size="14.00" fill="#000000">UrlBase</text>
</a>
</g>
</g>
<!-- 1&#45;&gt;13 -->
<g id="edge1" class="edge">
<title>1&#45;&gt;13</title>
<path fill="none" stroke="#000000" d="M596.2287,-105.6619C593.2827,-107.1298 590.3315,-108.597 587.5,-110 563.8729,-121.7069 537.3664,-134.7257 516.1821,-145.1027"/>
<polygon fill="none" stroke="#000000" points="514.5958,-141.9823 507.1537,-149.5232 517.674,-148.2692 514.5958,-141.9823"/>
</g>
<!-- 2 -->
<g id="node2" class="node">
<title>2</title>
<g id="a_node2"><a xlink:href="../code/linkcheck/linkcheck.checker.fileurl.html" xlink:title="FileUrl" target="_blank">
<polygon fill="none" stroke="#000000" points="670.5,-73.5 670.5,-109.5 726.5,-109.5 726.5,-73.5 670.5,-73.5"/>
<text text-anchor="middle" x="698.5" y="-87.8" font-family="Times,serif" font-size="14.00" fill="#000000">FileUrl</text>
</a>
</g>
</g>
<!-- 2&#45;&gt;13 -->
<g id="edge2" class="edge">
<title>2&#45;&gt;13</title>
<path fill="none" stroke="#000000" d="M670.4527,-106.1667C667.4629,-107.5362 664.4403,-108.8424 661.5,-110 613.0879,-129.0602 555.2857,-145.0616 517.33,-154.695"/>
<polygon fill="none" stroke="#000000" points="516.0239,-151.414 507.1751,-157.2405 517.726,-158.204 516.0239,-151.414"/>
</g>
<!-- 3 -->
<g id="node3" class="node">
<title>3</title>
<g id="a_node3"><a xlink:href="../code/linkcheck/linkcheck.checker.ftpurl.html" xlink:title="FtpUrl" target="_blank">
<polygon fill="none" stroke="#000000" points="288.5,-.5 288.5,-36.5 342.5,-36.5 342.5,-.5 288.5,-.5"/>
<text text-anchor="middle" x="315.5" y="-14.8" font-family="Times,serif" font-size="14.00" fill="#000000">FtpUrl</text>
</a>
</g>
</g>
<!-- 6 -->
<g id="node6" class="node">
<title>6</title>
<g id="a_node6"><a xlink:href="../code/linkcheck/linkcheck.checker.internpaturl.html" xlink:title="InternPatternUrl" target="_blank">
<polygon fill="none" stroke="#000000" points="367,-73.5 367,-109.5 472,-109.5 472,-73.5 367,-73.5"/>
<text text-anchor="middle" x="419.5" y="-87.8" font-family="Times,serif" font-size="14.00" fill="#000000">InternPatternUrl</text>
</a>
</g>
</g>
<!-- 3&#45;&gt;6 -->
<g id="edge3" class="edge">
<title>3&#45;&gt;6</title>
<path fill="none" stroke="#000000" d="M341.2079,-36.5449C354.583,-45.9333 371.1075,-57.5322 385.5232,-67.6509"/>
<polygon fill="none" stroke="#000000" points="383.5317,-70.5291 393.7274,-73.4096 387.5533,-64.7997 383.5317,-70.5291"/>
</g>
<!-- 10 -->
<g id="node10" class="node">
<title>10</title>
<g id="a_node10"><a xlink:href="../code/linkcheck/linkcheck.checker.proxysupport.html" xlink:title="ProxySupport" target="_blank">
<polygon fill="none" stroke="#000000" points="89.5,-73.5 89.5,-109.5 181.5,-109.5 181.5,-73.5 89.5,-73.5"/>
<text text-anchor="middle" x="135.5" y="-87.8" font-family="Times,serif" font-size="14.00" fill="#000000">ProxySupport</text>
</a>
</g>
</g>
<!-- 3&#45;&gt;10 -->
<g id="edge4" class="edge">
<title>3&#45;&gt;10</title>
<path fill="none" stroke="#000000" d="M288.1619,-29.5871C262.0242,-40.1874 221.8885,-56.4647 189.3292,-69.6693"/>
<polygon fill="none" stroke="#000000" points="187.8809,-66.4797 179.9294,-73.4814 190.5117,-72.9665 187.8809,-66.4797"/>
</g>
<!-- 4 -->
<g id="node4" class="node">
<title>4</title>
<g id="a_node4"><a xlink:href="../code/linkcheck/linkcheck.checker.httpurl.html" xlink:title="HttpUrl" target="_blank">
<polygon fill="none" stroke="#000000" points="159,-.5 159,-36.5 218,-36.5 218,-.5 159,-.5"/>
<text text-anchor="middle" x="188.5" y="-14.8" font-family="Times,serif" font-size="14.00" fill="#000000">HttpUrl</text>
</a>
</g>
</g>
<!-- 4&#45;&gt;6 -->
<g id="edge5" class="edge">
<title>4&#45;&gt;6</title>
<path fill="none" stroke="#000000" d="M218.2263,-27.894C253.1918,-38.9437 312.1839,-57.5862 357.2891,-71.8403"/>
<polygon fill="none" stroke="#000000" points="356.3888,-75.2263 366.9787,-74.9024 358.4982,-68.5517 356.3888,-75.2263"/>
</g>
<!-- 4&#45;&gt;10 -->
<g id="edge6" class="edge">
<title>4&#45;&gt;10</title>
<path fill="none" stroke="#000000" d="M175.3989,-36.5449C169.156,-45.1436 161.5668,-55.5966 154.6901,-65.0684"/>
<polygon fill="none" stroke="#000000" points="151.677,-63.2612 148.6341,-73.4096 157.3415,-67.3738 151.677,-63.2612"/>
</g>
<!-- 5 -->
<g id="node5" class="node">
<title>5</title>
<g id="a_node5"><a xlink:href="../code/linkcheck/linkcheck.checker.ignoreurl.html" xlink:title="IgnoreUrl" target="_blank">
<polygon fill="none" stroke="#000000" points="499.5,-.5 499.5,-36.5 569.5,-36.5 569.5,-.5 499.5,-.5"/>
<text text-anchor="middle" x="534.5" y="-14.8" font-family="Times,serif" font-size="14.00" fill="#000000">IgnoreUrl</text>
</a>
</g>
</g>
<!-- 12 -->
<g id="node12" class="node">
<title>12</title>
<g id="a_node12"><a xlink:href="../code/linkcheck/linkcheck.checker.unknownurl.html" xlink:title="UnknownUrl" target="_blank">
<polygon fill="none" stroke="#000000" points="490.5,-73.5 490.5,-109.5 578.5,-109.5 578.5,-73.5 490.5,-73.5"/>
<text text-anchor="middle" x="534.5" y="-87.8" font-family="Times,serif" font-size="14.00" fill="#000000">UnknownUrl</text>
</a>
</g>
</g>
<!-- 5&#45;&gt;12 -->
<g id="edge7" class="edge">
<title>5&#45;&gt;12</title>
<path fill="none" stroke="#000000" d="M534.5,-36.5449C534.5,-44.6172 534.5,-54.3236 534.5,-63.3183"/>
<polygon fill="none" stroke="#000000" points="531.0001,-63.4096 534.5,-73.4096 538.0001,-63.4097 531.0001,-63.4096"/>
</g>
<!-- 6&#45;&gt;13 -->
<g id="edge8" class="edge">
<title>6&#45;&gt;13</title>
<path fill="none" stroke="#000000" d="M433.5899,-109.5449C440.3724,-118.2314 448.6326,-128.8102 456.0877,-138.358"/>
<polygon fill="none" stroke="#000000" points="453.4616,-140.6818 462.3747,-146.4096 458.9789,-136.3737 453.4616,-140.6818"/>
</g>
<!-- 7 -->
<g id="node7" class="node">
<title>7</title>
<g id="a_node7"><a xlink:href="../code/linkcheck/linkcheck.checker.itmsservicesurl.html" xlink:title="ItmsServicesUrl" target="_blank">
<polygon fill="none" stroke="#000000" points="745,-73.5 745,-109.5 850,-109.5 850,-73.5 745,-73.5"/>
<text text-anchor="middle" x="797.5" y="-87.8" font-family="Times,serif" font-size="14.00" fill="#000000">ItmsServicesUrl</text>
</a>
</g>
</g>
<!-- 7&#45;&gt;13 -->
<g id="edge9" class="edge">
<title>7&#45;&gt;13</title>
<path fill="none" stroke="#000000" d="M744.817,-107.5423C741.6717,-108.3998 738.5484,-109.2259 735.5,-110 659.0431,-129.4158 568.6573,-147.2999 517.4067,-156.9753"/>
<polygon fill="none" stroke="#000000" points="516.5713,-153.5709 507.3888,-158.856 517.8629,-160.4508 516.5713,-153.5709"/>
</g>
<!-- 8 -->
<g id="node8" class="node">
<title>8</title>
<g id="a_node8"><a xlink:href="../code/linkcheck/linkcheck.checker.mailtourl.html" xlink:title="MailtoUrl" target="_blank">
<polygon fill="none" stroke="#000000" points="0,-73.5 0,-109.5 71,-109.5 71,-73.5 0,-73.5"/>
<text text-anchor="middle" x="35.5" y="-87.8" font-family="Times,serif" font-size="14.00" fill="#000000">MailtoUrl</text>
</a>
</g>
</g>
<!-- 8&#45;&gt;13 -->
<g id="edge10" class="edge">
<title>8&#45;&gt;13</title>
<path fill="none" stroke="#000000" d="M71.0777,-107.08C74.2303,-108.169 77.4009,-109.1642 80.5,-110 207.4288,-144.2294 363.3443,-157.6432 435.8461,-162.3047"/>
<polygon fill="none" stroke="#000000" points="435.7267,-165.8039 445.9244,-162.9303 436.1605,-158.8173 435.7267,-165.8039"/>
</g>
<!-- 9 -->
<g id="node9" class="node">
<title>9</title>
<g id="a_node9"><a xlink:href="../code/linkcheck/linkcheck.checker.nntpurl.html" xlink:title="NntpUrl" target="_blank">
<polygon fill="none" stroke="#000000" points="199.5,-73.5 199.5,-109.5 261.5,-109.5 261.5,-73.5 199.5,-73.5"/>
<text text-anchor="middle" x="230.5" y="-87.8" font-family="Times,serif" font-size="14.00" fill="#000000">NntpUrl</text>
</a>
</g>
</g>
<!-- 9&#45;&gt;13 -->
<g id="edge11" class="edge">
<title>9&#45;&gt;13</title>
<path fill="none" stroke="#000000" d="M261.7263,-106.5699C264.6648,-107.7972 267.6208,-108.9623 270.5,-110 326.7659,-130.2788 394.1226,-146.6803 436.1218,-156.0141"/>
<polygon fill="none" stroke="#000000" points="435.4551,-159.451 445.9731,-158.177 436.9563,-152.6139 435.4551,-159.451"/>
</g>
<!-- 11 -->
<g id="node11" class="node">
<title>11</title>
<g id="a_node11"><a xlink:href="../code/linkcheck/linkcheck.checker.telneturl.html" xlink:title="TelnetUrl" target="_blank">
<polygon fill="none" stroke="#000000" points="280,-73.5 280,-109.5 349,-109.5 349,-73.5 280,-73.5"/>
<text text-anchor="middle" x="314.5" y="-87.8" font-family="Times,serif" font-size="14.00" fill="#000000">TelnetUrl</text>
</a>
</g>
</g>
<!-- 11&#45;&gt;13 -->
<g id="edge12" class="edge">
<title>11&#45;&gt;13</title>
<path fill="none" stroke="#000000" d="M349.2531,-107.1603C374.8389,-118.6897 409.6829,-134.3911 436.4404,-146.4484"/>
<polygon fill="none" stroke="#000000" points="435.3453,-149.7939 445.9004,-150.7113 438.2212,-143.4119 435.3453,-149.7939"/>
</g>
<!-- 12&#45;&gt;13 -->
<g id="edge13" class="edge">
<title>12&#45;&gt;13</title>
<path fill="none" stroke="#000000" d="M520.1629,-109.5449C513.2614,-118.2314 504.8563,-128.8102 497.2704,-138.358"/>
<polygon fill="none" stroke="#000000" points="494.3536,-136.4028 490.8732,-146.4096 499.8343,-140.7573 494.3536,-136.4028"/>
</g>
</g>
</svg>
