<?xml version="1.0" encoding="UTF-8" standalone="no"?>
<!DOCTYPE svg PUBLIC "-//W3C//DTD SVG 1.1//EN"
 "http://www.w3.org/Graphics/SVG/1.1/DTD/svg11.dtd">
<!-- Generated by graphviz version 2.43.0 (0)
 -->
<!-- Title: linkcheck.checker classes Pages: 1 -->
<svg width="1028pt" height="191pt"
 viewBox="0.00 0.00 1027.50 191.00" xmlns="http://www.w3.org/2000/svg" xmlns:xlink="http://www.w3.org/1999/xlink">
<g id="graph0" class="graph" transform="scale(1 1) rotate(0) translate(4 187)">
<title>linkcheck.checker classes</title>
<polygon fill="white" stroke="transparent" points="-4,4 -4,-187 1023.5,-187 1023.5,4 -4,4"/>
<!-- 1 -->
<g id="node1" class="node">
<title>1</title>
<g id="a_node1"><a xlink:href="../code/linkcheck/linkcheck.checker.dnsurl.html" xlink:title="DnsUrl" target="_blank">
<polygon fill="none" stroke="black" points="715,-73.5 715,-109.5 783,-109.5 783,-73.5 715,-73.5"/>
<text text-anchor="middle" x="749" y="-87.8" font-family="Times,serif" font-size="14.00">DnsUrl</text>
</a>
</g>
</g>
<!-- 13 -->
<g id="node13" class="node">
<title>13</title>
<g id="a_node13"><a xlink:href="../code/linkcheck/linkcheck.checker.urlbase.html" xlink:title="UrlBase" target="_blank">
<polygon fill="none" stroke="black" points="536,-146.5 536,-182.5 610,-182.5 610,-146.5 536,-146.5"/>
<text text-anchor="middle" x="573" y="-160.8" font-family="Times,serif" font-size="14.00">UrlBase</text>
</a>
</g>
</g>
<!-- 1&#45;&gt;13 -->
<g id="edge1" class="edge">
<title>1&#45;&gt;13</title>
<path fill="none" stroke="black" d="M714.74,-106.46C711.78,-107.66 708.84,-108.85 706,-110 677.36,-121.59 645.22,-134.52 619.71,-144.76"/>
<polygon fill="none" stroke="black" points="618.26,-141.58 610.28,-148.55 620.86,-148.07 618.26,-141.58"/>
</g>
<!-- 2 -->
<g id="node2" class="node">
<title>2</title>
<g id="a_node2"><a xlink:href="../code/linkcheck/linkcheck.checker.fileurl.html" xlink:title="FileUrl" target="_blank">
<polygon fill="none" stroke="black" points="801.5,-73.5 801.5,-109.5 868.5,-109.5 868.5,-73.5 801.5,-73.5"/>
<text text-anchor="middle" x="835" y="-87.8" font-family="Times,serif" font-size="14.00">FileUrl</text>
</a>
</g>
</g>
<!-- 2&#45;&gt;13 -->
<g id="edge2" class="edge">
<title>2&#45;&gt;13</title>
<path fill="none" stroke="black" d="M801.37,-106.73C798.23,-107.9 795.07,-109.01 792,-110 733.79,-128.84 665.01,-144.62 620.27,-154.05"/>
<polygon fill="none" stroke="black" points="619.35,-150.67 610.27,-156.14 620.78,-157.52 619.35,-150.67"/>
</g>
<!-- 3 -->
<g id="node3" class="node">
<title>3</title>
<g id="a_node3"><a xlink:href="../code/linkcheck/linkcheck.checker.ftpurl.html" xlink:title="FtpUrl" target="_blank">
<polygon fill="none" stroke="black" points="343.5,-0.5 343.5,-36.5 408.5,-36.5 408.5,-0.5 343.5,-0.5"/>
<text text-anchor="middle" x="376" y="-14.8" font-family="Times,serif" font-size="14.00">FtpUrl</text>
</a>
</g>
</g>
<!-- 6 -->
<g id="node6" class="node">
<title>6</title>
<g id="a_node6"><a xlink:href="../code/linkcheck/linkcheck.checker.internpaturl.html" xlink:title="InternPatternUrl" target="_blank">
<polygon fill="none" stroke="black" points="434.5,-73.5 434.5,-109.5 571.5,-109.5 571.5,-73.5 434.5,-73.5"/>
<text text-anchor="middle" x="503" y="-87.8" font-family="Times,serif" font-size="14.00">InternPatternUrl</text>
</a>
</g>
</g>
<!-- 3&#45;&gt;6 -->
<g id="edge3" class="edge">
<title>3&#45;&gt;6</title>
<path fill="none" stroke="black" d="M406.42,-36.51C423.57,-46.1 445.19,-58.18 463.63,-68.49"/>
<polygon fill="none" stroke="black" points="461.95,-71.56 472.39,-73.39 465.37,-65.45 461.95,-71.56"/>
</g>
<!-- 10 -->
<g id="node10" class="node">
<title>10</title>
<g id="a_node10"><a xlink:href="../code/linkcheck/linkcheck.checker.proxysupport.html" xlink:title="ProxySupport" target="_blank">
<polygon fill="none" stroke="black" points="104,-73.5 104,-109.5 220,-109.5 220,-73.5 104,-73.5"/>
<text text-anchor="middle" x="162" y="-87.8" font-family="Times,serif" font-size="14.00">ProxySupport</text>
</a>
</g>
</g>
<!-- 3&#45;&gt;10 -->
<g id="edge4" class="edge">
<title>3&#45;&gt;10</title>
<path fill="none" stroke="black" d="M343.5,-30.28C311.7,-40.83 262.48,-57.16 223.31,-70.16"/>
<polygon fill="none" stroke="black" points="221.97,-66.91 213.58,-73.39 224.18,-73.56 221.97,-66.91"/>
</g>
<!-- 4 -->
<g id="node4" class="node">
<title>4</title>
<g id="a_node4"><a xlink:href="../code/linkcheck/linkcheck.checker.httpurl.html" xlink:title="HttpUrl" target="_blank">
<polygon fill="none" stroke="black" points="189.5,-0.5 189.5,-36.5 262.5,-36.5 262.5,-0.5 189.5,-0.5"/>
<text text-anchor="middle" x="226" y="-14.8" font-family="Times,serif" font-size="14.00">HttpUrl</text>
</a>
</g>
</g>
<!-- 4&#45;&gt;6 -->
<g id="edge5" class="edge">
<title>4&#45;&gt;6</title>
<path fill="none" stroke="black" d="M262.78,-28.93C304.42,-39.6 373.38,-57.28 426.76,-70.96"/>
<polygon fill="none" stroke="black" points="425.98,-74.37 436.53,-73.46 427.71,-67.59 425.98,-74.37"/>
</g>
<!-- 4&#45;&gt;10 -->
<g id="edge6" class="edge">
<title>4&#45;&gt;10</title>
<path fill="none" stroke="black" d="M210.51,-36.69C202.57,-45.5 192.76,-56.37 184.05,-66.04"/>
<polygon fill="none" stroke="black" points="181.45,-63.7 177.35,-73.47 186.65,-68.39 181.45,-63.7"/>
</g>
<!-- 5 -->
<g id="node5" class="node">
<title>5</title>
<g id="a_node5"><a xlink:href="../code/linkcheck/linkcheck.checker.ignoreurl.html" xlink:title="IgnoreUrl" target="_blank">
<polygon fill="none" stroke="black" points="600,-0.5 600,-36.5 686,-36.5 686,-0.5 600,-0.5"/>
<text text-anchor="middle" x="643" y="-14.8" font-family="Times,serif" font-size="14.00">IgnoreUrl</text>
</a>
</g>
</g>
<!-- 12 -->
<g id="node12" class="node">
<title>12</title>
<g id="a_node12"><a xlink:href="../code/linkcheck/linkcheck.checker.unknownurl.html" xlink:title="UnknownUrl" target="_blank">
<polygon fill="none" stroke="black" points="589.5,-73.5 589.5,-109.5 696.5,-109.5 696.5,-73.5 589.5,-73.5"/>
<text text-anchor="middle" x="643" y="-87.8" font-family="Times,serif" font-size="14.00">UnknownUrl</text>
</a>
</g>
</g>
<!-- 5&#45;&gt;12 -->
<g id="edge7" class="edge">
<title>5&#45;&gt;12</title>
<path fill="none" stroke="black" d="M643,-36.69C643,-44.71 643,-54.45 643,-63.43"/>
<polygon fill="none" stroke="black" points="639.5,-63.47 643,-73.47 646.5,-63.47 639.5,-63.47"/>
</g>
<!-- 6&#45;&gt;13 -->
<g id="edge8" class="edge">
<title>6&#45;&gt;13</title>
<path fill="none" stroke="black" d="M519.95,-109.69C528.72,-118.58 539.57,-129.59 549.17,-139.33"/>
<polygon fill="none" stroke="black" points="546.7,-141.81 556.21,-146.47 551.68,-136.89 546.7,-141.81"/>
</g>
<!-- 7 -->
<g id="node7" class="node">
<title>7</title>
<g id="a_node7"><a xlink:href="../code/linkcheck/linkcheck.checker.itmsservicesurl.html" xlink:title="ItmsServicesUrl" target="_blank">
<polygon fill="none" stroke="black" points="886.5,-73.5 886.5,-109.5 1019.5,-109.5 1019.5,-73.5 886.5,-73.5"/>
<text text-anchor="middle" x="953" y="-87.8" font-family="Times,serif" font-size="14.00">ItmsServicesUrl</text>
</a>
</g>
</g>
<!-- 7&#45;&gt;13 -->
<g id="edge9" class="edge">
<title>7&#45;&gt;13</title>
<path fill="none" stroke="black" d="M886.39,-108.25C883.56,-108.85 880.75,-109.44 878,-110 787.13,-128.56 680.22,-146.4 620.16,-156.06"/>
<polygon fill="none" stroke="black" points="619.54,-152.62 610.22,-157.66 620.64,-159.53 619.54,-152.62"/>
</g>
<!-- 8 -->
<g id="node8" class="node">
<title>8</title>
<g id="a_node8"><a xlink:href="../code/linkcheck/linkcheck.checker.mailtourl.html" xlink:title="MailtoUrl" target="_blank">
<polygon fill="none" stroke="black" points="0,-73.5 0,-109.5 86,-109.5 86,-73.5 0,-73.5"/>
<text text-anchor="middle" x="43" y="-87.8" font-family="Times,serif" font-size="14.00">MailtoUrl</text>
</a>
</g>
</g>
<!-- 8&#45;&gt;13 -->
<g id="edge10" class="edge">
<title>8&#45;&gt;13</title>
<path fill="none" stroke="black" d="M86.22,-107.81C89.17,-108.62 92.12,-109.36 95,-110 250.51,-144.46 439.65,-157.27 525.97,-161.56"/>
<polygon fill="none" stroke="black" points="525.82,-165.06 535.98,-162.04 526.16,-158.06 525.82,-165.06"/>
</g>
<!-- 9 -->
<g id="node9" class="node">
<title>9</title>
<g id="a_node9"><a xlink:href="../code/linkcheck/linkcheck.checker.nntpurl.html" xlink:title="NntpUrl" target="_blank">
<polygon fill="none" stroke="black" points="238,-73.5 238,-109.5 314,-109.5 314,-73.5 238,-73.5"/>
<text text-anchor="middle" x="276" y="-87.8" font-family="Times,serif" font-size="14.00">NntpUrl</text>
</a>
</g>
</g>
<!-- 9&#45;&gt;13 -->
<g id="edge11" class="edge">
<title>9&#45;&gt;13</title>
<path fill="none" stroke="black" d="M314.06,-107.2C317.07,-108.2 320.07,-109.15 323,-110 392.57,-130.28 475.07,-146.45 525.73,-155.51"/>
<polygon fill="none" stroke="black" points="525.27,-158.98 535.73,-157.28 526.49,-152.09 525.27,-158.98"/>
</g>
<!-- 11 -->
<g id="node11" class="node">
<title>11</title>
<g id="a_node11"><a xlink:href="../code/linkcheck/linkcheck.checker.telneturl.html" xlink:title="TelnetUrl" target="_blank">
<polygon fill="none" stroke="black" points="332,-73.5 332,-109.5 416,-109.5 416,-73.5 332,-73.5"/>
<text text-anchor="middle" x="374" y="-87.8" font-family="Times,serif" font-size="14.00">TelnetUrl</text>
</a>
</g>
</g>
<!-- 11&#45;&gt;13 -->
<g id="edge12" class="edge">
<title>11&#45;&gt;13</title>
<path fill="none" stroke="black" d="M416.2,-107.56C448.5,-119.08 493.01,-134.96 526.36,-146.86"/>
<polygon fill="none" stroke="black" points="525.29,-150.19 535.88,-150.26 527.64,-143.6 525.29,-150.19"/>
</g>
<!-- 12&#45;&gt;13 -->
<g id="edge13" class="edge">
<title>12&#45;&gt;13</title>
<path fill="none" stroke="black" d="M626.05,-109.69C617.28,-118.58 606.43,-129.59 596.83,-139.33"/>
<polygon fill="none" stroke="black" points="594.32,-136.89 589.79,-146.47 599.3,-141.81 594.32,-136.89"/>
</g>
</g>
</svg>
