<?xml version="1.0" encoding="UTF-8" standalone="no"?>
<!DOCTYPE svg PUBLIC "-//W3C//DTD SVG 1.1//EN"
 "http://www.w3.org/Graphics/SVG/1.1/DTD/svg11.dtd">
<!-- Generated by graphviz version 2.40.1 (20161225.0304)
 -->
<!-- Title: linkcheck.checker classes Pages: 1 -->
<svg width="1033pt" height="191pt"
 viewBox="0.00 0.00 1033.00 191.00" xmlns="http://www.w3.org/2000/svg" xmlns:xlink="http://www.w3.org/1999/xlink">
<g id="graph0" class="graph" transform="scale(1 1) rotate(0) translate(4 187)">
<title>linkcheck.checker classes</title>
<polygon fill="#ffffff" stroke="transparent" points="-4,4 -4,-187 1029,-187 1029,4 -4,4"/>
<!-- 1 -->
<g id="node1" class="node">
<title>1</title>
<g id="a_node1"><a xlink:href="../code/linkcheck/linkcheck.checker.dnsurl.html" xlink:title="DnsUrl" target="_blank">
<polygon fill="none" stroke="#000000" points="719,-73.5 719,-109.5 787,-109.5 787,-73.5 719,-73.5"/>
<text text-anchor="middle" x="753" y="-87.8" font-family="Times,serif" font-size="14.00" fill="#000000">DnsUrl</text>
</a>
</g>
</g>
<!-- 13 -->
<g id="node13" class="node">
<title>13</title>
<g id="a_node13"><a xlink:href="../code/linkcheck/linkcheck.checker.urlbase.html" xlink:title="UrlBase" target="_blank">
<polygon fill="none" stroke="#000000" points="539,-146.5 539,-182.5 613,-182.5 613,-146.5 539,-146.5"/>
<text text-anchor="middle" x="576" y="-160.8" font-family="Times,serif" font-size="14.00" fill="#000000">UrlBase</text>
</a>
</g>
</g>
<!-- 1&#45;&gt;13 -->
<g id="edge1" class="edge">
<title>1&#45;&gt;13</title>
<path fill="none" stroke="#000000" d="M718.7587,-106.3049C715.7994,-107.5622 712.8489,-108.808 710,-110 681.0336,-122.1203 648.3988,-135.4013 622.588,-145.8182"/>
<polygon fill="none" stroke="#000000" points="621.0182,-142.6773 613.0517,-149.662 623.6351,-149.1697 621.0182,-142.6773"/>
</g>
<!-- 2 -->
<g id="node2" class="node">
<title>2</title>
<g id="a_node2"><a xlink:href="../code/linkcheck/linkcheck.checker.fileurl.html" xlink:title="FileUrl" target="_blank">
<polygon fill="none" stroke="#000000" points="805.5,-73.5 805.5,-109.5 872.5,-109.5 872.5,-73.5 805.5,-73.5"/>
<text text-anchor="middle" x="839" y="-87.8" font-family="Times,serif" font-size="14.00" fill="#000000">FileUrl</text>
</a>
</g>
</g>
<!-- 2&#45;&gt;13 -->
<g id="edge2" class="edge">
<title>2&#45;&gt;13</title>
<path fill="none" stroke="#000000" d="M805.4016,-106.5721C802.249,-107.799 799.081,-108.9633 796,-110 737.527,-129.6741 668.1567,-145.6921 623.1702,-155.1526"/>
<polygon fill="none" stroke="#000000" points="622.1961,-151.7802 613.118,-157.2427 623.6212,-158.6337 622.1961,-151.7802"/>
</g>
<!-- 3 -->
<g id="node3" class="node">
<title>3</title>
<g id="a_node3"><a xlink:href="../code/linkcheck/linkcheck.checker.ftpurl.html" xlink:title="FtpUrl" target="_blank">
<polygon fill="none" stroke="#000000" points="345.5,-.5 345.5,-36.5 410.5,-36.5 410.5,-.5 345.5,-.5"/>
<text text-anchor="middle" x="378" y="-14.8" font-family="Times,serif" font-size="14.00" fill="#000000">FtpUrl</text>
</a>
</g>
</g>
<!-- 6 -->
<g id="node6" class="node">
<title>6</title>
<g id="a_node6"><a xlink:href="../code/linkcheck/linkcheck.checker.internpaturl.html" xlink:title="InternPatternUrl" target="_blank">
<polygon fill="none" stroke="#000000" points="437,-73.5 437,-109.5 575,-109.5 575,-73.5 437,-73.5"/>
<text text-anchor="middle" x="506" y="-87.8" font-family="Times,serif" font-size="14.00" fill="#000000">InternPatternUrl</text>
</a>
</g>
</g>
<!-- 3&#45;&gt;6 -->
<g id="edge3" class="edge">
<title>3&#45;&gt;6</title>
<path fill="none" stroke="#000000" d="M409.6405,-36.5449C426.4099,-46.1088 447.2017,-57.9666 465.1745,-68.2167"/>
<polygon fill="none" stroke="#000000" points="463.8594,-71.4958 474.2799,-73.4096 467.3272,-65.4152 463.8594,-71.4958"/>
</g>
<!-- 10 -->
<g id="node10" class="node">
<title>10</title>
<g id="a_node10"><a xlink:href="../code/linkcheck/linkcheck.checker.proxysupport.html" xlink:title="ProxySupport" target="_blank">
<polygon fill="none" stroke="#000000" points="104,-73.5 104,-109.5 220,-109.5 220,-73.5 104,-73.5"/>
<text text-anchor="middle" x="162" y="-87.8" font-family="Times,serif" font-size="14.00" fill="#000000">ProxySupport</text>
</a>
</g>
</g>
<!-- 3&#45;&gt;10 -->
<g id="edge4" class="edge">
<title>3&#45;&gt;10</title>
<path fill="none" stroke="#000000" d="M345.1942,-29.5871C313.4252,-40.3239 264.4232,-56.8848 225.0904,-70.1778"/>
<polygon fill="none" stroke="#000000" points="223.6683,-66.9639 215.3153,-73.4814 225.9095,-73.5954 223.6683,-66.9639"/>
</g>
<!-- 4 -->
<g id="node4" class="node">
<title>4</title>
<g id="a_node4"><a xlink:href="../code/linkcheck/linkcheck.checker.httpurl.html" xlink:title="HttpUrl" target="_blank">
<polygon fill="none" stroke="#000000" points="189,-.5 189,-36.5 263,-36.5 263,-.5 189,-.5"/>
<text text-anchor="middle" x="226" y="-14.8" font-family="Times,serif" font-size="14.00" fill="#000000">HttpUrl</text>
</a>
</g>
</g>
<!-- 4&#45;&gt;6 -->
<g id="edge5" class="edge">
<title>4&#45;&gt;6</title>
<path fill="none" stroke="#000000" d="M263.1818,-28.1938C304.775,-39.0378 373.3526,-56.9169 427.0392,-70.9138"/>
<polygon fill="none" stroke="#000000" points="426.321,-74.3435 436.8806,-73.4796 428.087,-67.5699 426.321,-74.3435"/>
</g>
<!-- 4&#45;&gt;10 -->
<g id="edge6" class="edge">
<title>4&#45;&gt;10</title>
<path fill="none" stroke="#000000" d="M210.1798,-36.5449C202.4874,-45.3191 193.1022,-56.0241 184.6656,-65.647"/>
<polygon fill="none" stroke="#000000" points="181.8206,-63.5829 177.86,-73.4096 187.0842,-68.1976 181.8206,-63.5829"/>
</g>
<!-- 5 -->
<g id="node5" class="node">
<title>5</title>
<g id="a_node5"><a xlink:href="../code/linkcheck/linkcheck.checker.ignoreurl.html" xlink:title="IgnoreUrl" target="_blank">
<polygon fill="none" stroke="#000000" points="603.5,-.5 603.5,-36.5 690.5,-36.5 690.5,-.5 603.5,-.5"/>
<text text-anchor="middle" x="647" y="-14.8" font-family="Times,serif" font-size="14.00" fill="#000000">IgnoreUrl</text>
</a>
</g>
</g>
<!-- 12 -->
<g id="node12" class="node">
<title>12</title>
<g id="a_node12"><a xlink:href="../code/linkcheck/linkcheck.checker.unknownurl.html" xlink:title="UnknownUrl" target="_blank">
<polygon fill="none" stroke="#000000" points="593,-73.5 593,-109.5 701,-109.5 701,-73.5 593,-73.5"/>
<text text-anchor="middle" x="647" y="-87.8" font-family="Times,serif" font-size="14.00" fill="#000000">UnknownUrl</text>
</a>
</g>
</g>
<!-- 5&#45;&gt;12 -->
<g id="edge7" class="edge">
<title>5&#45;&gt;12</title>
<path fill="none" stroke="#000000" d="M647,-36.5449C647,-44.6172 647,-54.3236 647,-63.3183"/>
<polygon fill="none" stroke="#000000" points="643.5001,-63.4096 647,-73.4096 650.5001,-63.4097 643.5001,-63.4096"/>
</g>
<!-- 6&#45;&gt;13 -->
<g id="edge8" class="edge">
<title>6&#45;&gt;13</title>
<path fill="none" stroke="#000000" d="M523.3034,-109.5449C531.8011,-118.4068 542.1875,-129.2384 551.486,-138.9354"/>
<polygon fill="none" stroke="#000000" points="549.2056,-141.6142 558.6531,-146.4096 554.2581,-136.7694 549.2056,-141.6142"/>
</g>
<!-- 7 -->
<g id="node7" class="node">
<title>7</title>
<g id="a_node7"><a xlink:href="../code/linkcheck/linkcheck.checker.itmsservicesurl.html" xlink:title="ItmsServicesUrl" target="_blank">
<polygon fill="none" stroke="#000000" points="891,-73.5 891,-109.5 1025,-109.5 1025,-73.5 891,-73.5"/>
<text text-anchor="middle" x="958" y="-87.8" font-family="Times,serif" font-size="14.00" fill="#000000">ItmsServicesUrl</text>
</a>
</g>
</g>
<!-- 7&#45;&gt;13 -->
<g id="edge9" class="edge">
<title>7&#45;&gt;13</title>
<path fill="none" stroke="#000000" d="M890.9151,-108.0708C887.9057,-108.7381 884.9234,-109.3845 882,-110 790.904,-129.1801 683.6189,-147.2601 623.3356,-157.0121"/>
<polygon fill="none" stroke="#000000" points="622.6733,-153.5736 613.3573,-158.6196 623.7867,-160.4845 622.6733,-153.5736"/>
</g>
<!-- 8 -->
<g id="node8" class="node">
<title>8</title>
<g id="a_node8"><a xlink:href="../code/linkcheck/linkcheck.checker.mailtourl.html" xlink:title="MailtoUrl" target="_blank">
<polygon fill="none" stroke="#000000" points="0,-73.5 0,-109.5 86,-109.5 86,-73.5 0,-73.5"/>
<text text-anchor="middle" x="43" y="-87.8" font-family="Times,serif" font-size="14.00" fill="#000000">MailtoUrl</text>
</a>
</g>
</g>
<!-- 8&#45;&gt;13 -->
<g id="edge10" class="edge">
<title>8&#45;&gt;13</title>
<path fill="none" stroke="#000000" d="M86.1904,-107.7005C89.1503,-108.552 92.106,-109.3306 95,-110 251.1816,-146.1268 441.6609,-158.6744 528.6189,-162.7239"/>
<polygon fill="none" stroke="#000000" points="528.5541,-166.2244 538.701,-163.1766 528.8681,-159.2315 528.5541,-166.2244"/>
</g>
<!-- 9 -->
<g id="node9" class="node">
<title>9</title>
<g id="a_node9"><a xlink:href="../code/linkcheck/linkcheck.checker.nntpurl.html" xlink:title="NntpUrl" target="_blank">
<polygon fill="none" stroke="#000000" points="238.5,-73.5 238.5,-109.5 315.5,-109.5 315.5,-73.5 238.5,-73.5"/>
<text text-anchor="middle" x="277" y="-87.8" font-family="Times,serif" font-size="14.00" fill="#000000">NntpUrl</text>
</a>
</g>
</g>
<!-- 9&#45;&gt;13 -->
<g id="edge11" class="edge">
<title>9&#45;&gt;13</title>
<path fill="none" stroke="#000000" d="M315.5535,-107.2481C318.3938,-108.2317 321.2304,-109.1615 324,-110 394.1395,-131.2357 477.6348,-147.6002 528.7155,-156.6386"/>
<polygon fill="none" stroke="#000000" points="528.343,-160.1265 538.7964,-158.4016 529.5489,-153.2312 528.343,-160.1265"/>
</g>
<!-- 11 -->
<g id="node11" class="node">
<title>11</title>
<g id="a_node11"><a xlink:href="../code/linkcheck/linkcheck.checker.telneturl.html" xlink:title="TelnetUrl" target="_blank">
<polygon fill="none" stroke="#000000" points="333.5,-73.5 333.5,-109.5 418.5,-109.5 418.5,-73.5 333.5,-73.5"/>
<text text-anchor="middle" x="376" y="-87.8" font-family="Times,serif" font-size="14.00" fill="#000000">TelnetUrl</text>
</a>
</g>
</g>
<!-- 11&#45;&gt;13 -->
<g id="edge12" class="edge">
<title>11&#45;&gt;13</title>
<path fill="none" stroke="#000000" d="M418.905,-107.1603C451.3941,-119.0188 495.9748,-135.2908 529.3475,-147.4719"/>
<polygon fill="none" stroke="#000000" points="528.2865,-150.8104 538.8804,-150.9513 530.6867,-144.2347 528.2865,-150.8104"/>
</g>
<!-- 12&#45;&gt;13 -->
<g id="edge13" class="edge">
<title>12&#45;&gt;13</title>
<path fill="none" stroke="#000000" d="M629.4494,-109.5449C620.745,-118.4946 610.0868,-129.453 600.5844,-139.2231"/>
<polygon fill="none" stroke="#000000" points="598.0579,-136.8008 593.5947,-146.4096 603.076,-141.6813 598.0579,-136.8008"/>
</g>
</g>
</svg>
